<svg xmlns="http://www.w3.org/2000/svg" xmlns:xlink="http://www.w3.org/1999/xlink"><symbol viewBox="0 0 38 24" id="account" xmlns="http://www.w3.org/2000/svg"><path d="M23 8h10a1 1 0 010 2H23a1 1 0 010-2zm-2 13a1 1 0 01-2 0v-2a3 3 0 00-3-3H8a3 3 0 00-3 3v2a1 1 0 01-2 0v-2a5 5 0 015-5h8a5 5 0 015 5v2zm-9-9a5 5 0 110-10 5 5 0 010 10zm0-2a3 3 0 100-6 3 3 0 000 6zm13 3h8a1 1 0 010 2h-8a1 1 0 010-2z"/></symbol><symbol viewBox="0 0 32 32" id="account-address" xmlns="http://www.w3.org/2000/svg"><path d="M26.192 31.618H4.366a2.696 2.696 0 01-2.696-2.696V3.078A2.696 2.696 0 014.366.382h21.826a2.696 2.696 0 012.696 2.696v25.844a2.696 2.696 0 01-2.696 2.696zM4.365 3.078v25.844h21.826V3.078zm21.827 0z"/><path d="M21.891 11.059H8.625a1.348 1.348 0 110-2.696h13.266a1.348 1.348 0 110 2.696zM21.891 16.452H8.625a1.348 1.348 0 110-2.696h13.266a1.348 1.348 0 110 2.696zM21.891 21.844H8.625a1.348 1.348 0 110-2.696h13.266a1.348 1.348 0 110 2.696zM27.54 3.846h2.791v6.08H27.54v-6.08zM27.54 11.949h2.791v6.08H27.54v-6.08zM27.54 20.065h2.791v6.08H27.54v-6.08z"/></symbol><symbol viewBox="0 0 32 32" id="account-orders" xmlns="http://www.w3.org/2000/svg"><path d="M16.002 31.5c-8.56 0-15.5-6.94-15.5-15.5a1.348 1.348 0 112.696 0v.007c0 7.072 5.733 12.804 12.804 12.804 3.537 0 6.74-1.435 9.057-3.754A12.766 12.766 0 0028.813 16c0-7.072-5.733-12.804-12.804-12.804h-.047a12.68 12.68 0 00-9.017 3.747 1.348 1.348 0 01-1.899-1.901A15.344 15.344 0 0115.962.502h.042-.002c8.558.003 15.495 6.941 15.495 15.5 0 4.279-1.734 8.153-4.538 10.958a15.343 15.343 0 01-10.918 4.542h-.042z"/><path d="M4.276 9.476h-.007c-.697 0-1.27-.529-1.341-1.207l-.567-5.842a1.354 1.354 0 012.695-.262l.432 4.494 4.448-.431a1.354 1.354 0 01.262 2.695L4.37 9.49zM21.609 23.413H10.395V11.417h11.2zm-9.866-1.348h8.505v-9.3h-8.505z"/><path d="M20.477 12.091h-1.348v-1.604h-6.254v1.604h-1.348V9.139h8.95v2.952zM16.002 17.644c-2.251 0-2.696-1.253-2.696-2.305v-1.2h1.348v1.186c0 .526.108.957 1.348.957s1.348-.431 1.348-.957v-1.2h1.348v1.2c.027 1.065-.445 2.318-2.696 2.318z"/></symbol><symbol viewBox="0 0 28 32" id="account-password" xmlns="http://www.w3.org/2000/svg"><path d="M24.987 31.5H2.888a2.455 2.455 0 01-2.455-2.455V14.582a2.455 2.455 0 012.455-2.455h22.099a2.455 2.455 0 012.455 2.455v14.463a2.455 2.455 0 01-2.455 2.455zm0-2.455zM2.888 14.582v14.463h22.099V14.582z"/><path d="M23.6 13.354h-2.455V9.757a6.802 6.802 0 00-6.802-6.802h-.81a6.802 6.802 0 00-6.802 6.802v3.597H4.276V9.757A9.269 9.269 0 0113.532.5h.811A9.269 9.269 0 0123.6 9.756zM8.818 21.813a1.743 1.743 0 11-3.486 0 1.743 1.743 0 013.486 0zM15.681 21.813a1.743 1.743 0 11-3.486 0 1.743 1.743 0 013.486 0zM22.544 21.813a1.743 1.743 0 11-3.486 0 1.743 1.743 0 013.486 0z"/></symbol><symbol viewBox="0 0 32 32" id="account-payment" xmlns="http://www.w3.org/2000/svg"><path d="M24.437 22.692H3.227a2.45 2.45 0 01-2.449-2.449V7.397a2.45 2.45 0 012.449-2.449h21.21a2.45 2.45 0 012.449 2.449v12.846a2.45 2.45 0 01-2.449 2.449zm0-2.449zM3.227 7.397v12.846h21.198V7.397z"/><path d="M28.773 27.052H5.922a2.45 2.45 0 01-2.449-2.449v-3.135h2.449v3.147h22.851V10.091h-3.11V7.642h3.11a2.45 2.45 0 012.449 2.449v14.511a2.45 2.45 0 01-2.449 2.449z"/><path d="M2.003 10.177h23.659v3.355H2.003v-3.355z"/></symbol><symbol viewBox="0 0 32 32" id="account-preferences" xmlns="http://www.w3.org/2000/svg"><path d="M30.167 7.629H11.828a1.288 1.288 0 010-2.576h18.339a1.288 1.288 0 010 2.576zM5.388 7.629H1.833a1.288 1.288 0 010-2.576h3.555a1.288 1.288 0 010 2.576zM30.167 17.288h-3.542a1.288 1.288 0 010-2.576h3.542a1.288 1.288 0 010 2.576zM20.186 17.288H1.834a1.288 1.288 0 010-2.576h18.352a1.288 1.288 0 010 2.576zM30.167 26.921H16.438a1.288 1.288 0 010-2.576h13.729a1.288 1.288 0 010 2.576zM9.998 26.921H1.833a1.288 1.288 0 010-2.576h8.165a1.288 1.288 0 010 2.576z"/><path d="M8.608 10.848a4.508 4.508 0 110-9.017 4.508 4.508 0 010 9.017zm0-6.439a1.932 1.932 0 100 3.864 1.932 1.932 0 000-3.864zM23.405 20.482a4.508 4.508 0 110-9.017 4.508 4.508 0 010 9.017zm0-6.44a1.932 1.932 0 100 3.864 1.932 1.932 0 000-3.864zM13.218 30.167a4.508 4.508 0 110-9.017 4.508 4.508 0 010 9.017zm0-6.44a1.932 1.932 0 100 3.864 1.932 1.932 0 000-3.864z"/></symbol><symbol viewBox="0 0 32 32" id="account-profile" xmlns="http://www.w3.org/2000/svg"><path d="M16 31.5C7.44 31.5.5 24.56.5 16S7.44.5 16 .5C24.56.5 31.5 7.44 31.5 16S24.56 31.5 16 31.5zm0-28.182C8.996 3.318 3.318 8.996 3.318 16S8.996 28.682 16 28.682c7.004 0 12.682-5.678 12.682-12.682S23.004 3.318 16 3.318z"/><path d="M16 18.043a6.187 6.187 0 11.001-12.373A6.187 6.187 0 0116 18.043zm0-9.553a3.368 3.368 0 103.368 3.368A3.368 3.368 0 0016 8.504z"/><path d="M25.215 25.356c-.324-3.974-5.805-7.215-9.215-7.215s-8.891 3.227-9.215 7.215l-2.818-.225c.437-5.425 6.933-9.864 12.02-9.864s11.583 4.368 12.02 9.864z"/></symbol><symbol id="ambassador-card" viewBox="0 0 113.39 85.04" xml:space="preserve" xmlns="http://www.w3.org/2000/svg"><style>.ahst0{fill:#1d1d1b}</style><path class="ahst0" d="M88.57 21.07H70.21C68.98 14.73 63.39 9.94 56.7 9.94c-6.69 0-12.28 4.8-13.51 11.13H24.82c-4.16 0-7.55 3.39-7.55 7.55v38.92c0 4.16 3.39 7.55 7.55 7.55h63.75c4.16 0 7.55-3.39 7.55-7.55V28.63c0-4.17-3.39-7.56-7.55-7.56zm-31.88-5.86c4.69 0 8.5 3.81 8.5 8.5s-3.81 8.5-8.5 8.5-8.5-3.81-8.5-8.5 3.82-8.5 8.5-8.5zm34.15 52.34c0 1.25-1.02 2.28-2.28 2.28H24.82c-1.26 0-2.28-1.02-2.28-2.28V28.63c0-1.26 1.02-2.28 2.28-2.28h18.36c1.23 6.34 6.82 11.13 13.51 11.13 6.69 0 12.28-4.8 13.51-11.13h18.36c1.25 0 2.28 1.02 2.28 2.28v38.92z"/><path class="ahst0" d="M52.48 41.42H31.11c-1.46 0-2.64 1.18-2.64 2.64 0 1.46 1.18 2.64 2.64 2.64h21.37c1.46 0 2.64-1.18 2.64-2.64 0-1.46-1.18-2.64-2.64-2.64zM52.48 59.12H31.11c-1.46 0-2.64 1.18-2.64 2.64s1.18 2.64 2.64 2.64h21.37c1.46 0 2.64-1.18 2.64-2.64s-1.18-2.64-2.64-2.64zM31.11 55.54h13.54c1.46 0 2.64-1.18 2.64-2.64s-1.18-2.64-2.64-2.64H31.11c-1.46 0-2.64 1.18-2.64 2.64s1.19 2.64 2.64 2.64zM80.39 44.44L68.64 56.45l-5.94-5.48a2.64 2.64 0 00-3.58 3.88l7.82 7.22c.51.47 1.15.7 1.79.7.69 0 1.37-.27 1.88-.79l13.54-13.84c1.02-1.04 1-2.71-.04-3.73a2.617 2.617 0 00-3.72.03z"/></symbol><symbol viewBox="0 0 36 32" id="arrow-left" xmlns="http://www.w3.org/2000/svg"><path d="M13.893 29.143l2.3-2.3L3.05 13.7.75 16l13.143 13.143z"/><path d="M3.05 18.3L16.193 5.157l-2.3-2.3L.75 16l2.3 2.3z"/><path d="M2.393 17.643h32.858v-3.286H2.393v3.286z"/></symbol><symbol viewBox="0 0 36 32" id="arrow-right" xmlns="http://www.w3.org/2000/svg"><path d="M22.107 29.143l-2.3-2.3L32.95 13.7l2.3 2.3-13.143 13.143z"/><path d="M32.95 18.3L19.807 5.157l2.3-2.3L35.25 16l-2.3 2.3z"/><path d="M33.607 17.643H.749v-3.286h32.858v3.286z"/></symbol><symbol viewBox="0 0 12 12" id="border-check" xmlns="http://www.w3.org/2000/svg"><path d="M6 0C2.691 0 0 2.691 0 6s2.691 6 6 6 6-2.692 6-6-2.691-6-6-6zm0 11.07A5.075 5.075 0 01.93 6 5.075 5.075 0 016 .93 5.075 5.075 0 0111.07 6 5.075 5.075 0 016 11.07z"/><path d="M8.753 3.913a.465.465 0 00-.656.032L5.262 7.067l-1.37-1.393a.464.464 0 00-.663.652l1.715 1.743a.462.462 0 00.331.139h.009a.469.469 0 00.335-.152L8.784 4.57a.465.465 0 00-.031-.657z"/></symbol><symbol viewBox="0 0 12 12" id="border-clock" xmlns="http://www.w3.org/2000/svg"><path fill="#f0990c" d="M6 0C2.691 0 0 2.691 0 6s2.691 6 6 6 6-2.692 6-6-2.691-6-6-6zm0 11.07A5.075 5.075 0 01.93 6 5.075 5.075 0 016 .93 5.075 5.075 0 0111.07 6 5.075 5.075 0 016 11.07z"/><path xmlns="http://www.w3.org/2000/svg" fill="transparent" stroke="#f0990c" stroke-linecap="round" stroke-linejoin="round" stroke-width=".9" d="M5.5 3v3.5h2.498"/></symbol><symbol viewBox="0 0 24 24" id="cart" xmlns="http://www.w3.org/2000/svg"><path d="M5.457 5H3a1 1 0 110-2h3.273a1 1 0 01.98.8L7.907 7H21a1 1 0 01.982 1.191l-1.311 6.72a2.623 2.623 0 01-2.616 2.09L10.12 17c-1.272.024-2.384-.852-2.635-2.087L6.12 8.24a.995.995 0 01-.016-.078L5.457 5zm2.86 4l1.128 5.513c.058.283.324.493.657.487h7.971c.314.006.58-.204.636-.48L19.786 9H8.317zM10 19h8a1 1 0 010 2h-8a1 1 0 010-2z"/></symbol><symbol viewBox="0 0 24 24" id="cart-mongoose" xmlns="http://www.w3.org/2000/svg"><path fill="#FFF" d="M18 19a1 1 0 010 2h-8a1 1 0 010-2h8zM6.273 3a1 1 0 01.98.8L7.907 7H21a1 1 0 01.982 1.191l-1.311 6.72a2.623 2.623 0 01-2.616 2.09L10.12 17c-1.272.024-2.384-.852-2.635-2.087L6.12 8.24a.995.995 0 01-.016-.078L5.457 5H3a1 1 0 110-2h3.273zm13.513 6H8.317l1.128 5.513c.058.283.324.493.657.487h7.971c.314.006.58-.204.636-.48L19.786 9z"/></symbol><symbol fill="currentColor" class="aobi aobi-chat-fill" viewBox="0 0 16 16" id="chat-fill" xmlns="http://www.w3.org/2000/svg"><path d="M8 15c4.418 0 8-3.134 8-7s-3.582-7-8-7-8 3.134-8 7c0 1.76.743 3.37 1.97 4.6-.097 1.016-.417 2.13-.771 2.966-.079.186.074.394.273.362 2.256-.37 3.597-.938 4.18-1.234A9.06 9.06 0 008 15z"/></symbol><symbol id="chat-icon" viewBox="0 0 54.67 53.25" xmlns="http://www.w3.org/2000/svg"><defs><style>.apcls-1{fill:none;stroke:#1d1d1b;stroke-miterlimit:10;stroke-width:4px}</style></defs><path id="apbubble1" class="apcls-1" d="M30.5 49.17v-6.5h11V12.33H2v30.5h20.33l8.17 6.34z"/><path id="apline2" class="apcls-1" d="M11.17 24.33H33.5"/><path id="apline1" class="apcls-1" d="M20.17 32H33.5"/><path id="apbubble2" class="apcls-1" d="M13 8.17V2h39.67v29.17h-6"/></symbol><symbol viewBox="0 0 54.67 53.25" id="chat-icon-no-styles" xmlns="http://www.w3.org/2000/svg"><path class="aqcls-1" d="M30.5 49.17v-6.5h11V12.33H2v30.5h20.33l8.17 6.34zM11.17 24.33H33.5M20.17 32H33.5"/><path class="aqcls-1" d="M13 8.17V2h39.67v29.17h-6"/></symbol><symbol viewBox="0 0 24 24" id="check" xmlns="http://www.w3.org/2000/svg"><path d="M17.7 7.8c-.4-.4-1-.4-1.4 0L10 14.1l-2.3-2.3c-.4-.4-1-.4-1.4 0-.4.4-.4 1 0 1.4l3 3c.2.2.5.3.7.3s.5-.1.7-.3l7-7c.4-.4.4-1 0-1.4z"/></symbol><symbol viewBox="0 0 31 32" id="chevron-down" xmlns="http://www.w3.org/2000/svg"><path d="M2.947 6.958L.235 9.67l15.5 15.371 2.712-2.712-15.5-15.371z"/><path d="M28.522 6.958l-15.5 15.371 2.713 2.712 15.5-15.371-2.712-2.713z"/></symbol><symbol viewBox="0 0 31 16" id="chevron-down-large-thin" xmlns="http://www.w3.org/2000/svg"><path d="M30.378 1.313L15.609 15.36.84 1.313 1.513.64l14.095 13.373L29.703.64z"/></symbol><symbol viewBox="0 0 31 32" id="chevron-down-red" xmlns="http://www.w3.org/2000/svg"><path fill="red" d="M2.947 6.958L.235 9.67l15.5 15.371 2.712-2.712-15.5-15.371z"/><path fill="red" d="M28.522 6.958l-15.5 15.371 2.713 2.712 15.5-15.371-2.712-2.713z"/></symbol><symbol viewBox="0 0 15 32" id="chevron-large-thin-left" xmlns="http://www.w3.org/2000/svg"><path d="M14.296 30.769L.249 16 14.296 1.231l.673.673L1.596 15.999l13.373 14.095z"/></symbol><symbol viewBox="0 0 15 32" id="chevron-large-thin-right" xmlns="http://www.w3.org/2000/svg"><path d="M.923 30.769L14.97 16 .923 1.231l-.673.673 13.373 14.095L.25 30.094z"/></symbol><symbol viewBox="0 0 24 24" id="chevron-left"><path d="M8.5 12.5c0-.266.105-.52.293-.707l5-5a.999.999 0 111.414 1.414L10.914 12.5l4.293 4.293a.999.999 0 11-1.414 1.414l-5-5A.996.996 0 018.5 12.5"/></symbol><symbol viewBox="0 0 24 24" id="chevron-right" xmlns="http://www.w3.org/2000/svg"><path d="M15.5 12.5c0 .266-.105.52-.293.707l-5 5a.999.999 0 11-1.414-1.414l4.293-4.293-4.293-4.293a.999.999 0 111.414-1.414l5 5a.997.997 0 01.293.707"/></symbol><symbol viewBox="0 0 31 32" id="chevron-up" xmlns="http://www.w3.org/2000/svg"><path d="M2.947 25.042L.235 22.33l15.5-15.371 2.712 2.713-15.5 15.371z"/><path d="M28.522 25.042l-15.5-15.371 2.713-2.713 15.5 15.371-2.712 2.712z"/></symbol><symbol viewBox="0 0 31 16" id="chevron-up-large-thin" xmlns="http://www.w3.org/2000/svg"><path d="M.84 14.687L15.609.64l14.769 14.047-.673.673L15.61 1.987 1.515 15.36z"/></symbol><symbol viewBox="0 0 31 32" id="chevron-up-red" xmlns="http://www.w3.org/2000/svg"><path fill="red" d="M2.947 25.042L.235 22.33l15.5-15.371 2.712 2.713-15.5 15.371z"/><path fill="red" d="M28.522 25.042l-15.5-15.371 2.713-2.713 15.5 15.371-2.712 2.712z"/></symbol><symbol viewBox="0 0 20 20" id="clear-cross" xmlns="http://www.w3.org/2000/svg"><path d="M10 0C4.5 0 0 4.5 0 10s4.5 10 10 10 10-4.5 10-10S15.5 0 10 0zm0 18.5c-4.7 0-8.5-3.8-8.5-8.5S5.3 1.5 10 1.5s8.5 3.8 8.5 8.5-3.8 8.5-8.5 8.5z"/><path d="M13.7 6.3c-.3-.3-.8-.3-1.1 0L10 8.9 7.3 6.3c-.2-.3-.7-.3-1 0s-.3.8 0 1L9 10l-2.7 2.7c-.3.3-.3.8 0 1.1.1.1.3.2.5.2s.4-.1.5-.2l2.7-2.7 2.7 2.7c.1.1.3.2.5.2s.4-.1.5-.2c.3-.3.3-.8 0-1.1L11.1 10l2.7-2.7c.2-.2.2-.7-.1-1z"/></symbol><symbol viewBox="0 0 24 24" id="close" xmlns="http://www.w3.org/2000/svg"><path d="M12 10.656l5.377-5.378a.95.95 0 011.345 1.345L13.344 12l5.378 5.377a.95.95 0 11-1.345 1.345L12 13.344l-5.377 5.378a.95.95 0 11-1.345-1.345L10.656 12 5.278 6.623a.95.95 0 011.345-1.345L12 10.656z"/></symbol><symbol viewBox="0 0 32 32" id="close-x" xmlns="http://www.w3.org/2000/svg"><path d="M.5 3.715L3.83.5 31.5 28.285 28.285 31.5.5 3.715z"/><path d="M.5 28.285L28.285.5 31.5 3.715 3.83 31.5.5 28.285z"/></symbol><symbol viewBox="0 0 32 32" id="contact" xmlns="http://www.w3.org/2000/svg"><path d="M6.243 22.341h2.026c.44 0 .793-.352.793-.793s-.352-.793-.793-.793H6.243v-4.139h2.026c.44 0 .793-.352.793-.793s-.352-.793-.793-.793H6.243v-4.139h2.026c.44 0 .793-.352.793-.793s-.352-.793-.793-.793H6.243V5.342h2.026c.44 0 .793-.352.793-.793s-.352-.793-.793-.793H6.243V1.907h22.281v27.918H6.243v-1.849h2.026c.44 0 .793-.352.793-.793s-.352-.793-.793-.793H6.243v-4.051zM2.72 26.48c-.44 0-.793.352-.793.793s.352.793.793.793h2.026v2.642c0 .44.352.793.793.793h23.866a.79.79 0 00.793-.793V1.293A.79.79 0 0029.405.5H5.539a.79.79 0 00-.793.793v2.642H2.72c-.44 0-.793.352-.793.793s.352.793.793.793h2.026V9.66H2.72c-.44 0-.793.352-.793.793s.352.793.793.793h2.026v4.139H2.72c-.44 0-.793.352-.793.793s.352.793.793.793h2.026v4.139H2.72c-.44 0-.793.352-.793.793s.352.793.793.793h2.026v4.139l-2.026-.352z"/></symbol><symbol viewBox="0 0 18 18" id="copy-link" xmlns="http://www.w3.org/2000/svg"><g fill="none" fill-rule="evenodd"><path d="M18 0v18H0V0z"/><path d="M8.931 9.775l.251.25a3 3 0 010 4.243l-1.414 1.414a3 3 0 01-4.243 0l-1.414-1.414a3 3 0 010-4.243l1.414-1.414a3 3 0 013.978-.236l.754-.754a3 3 0 010-4.242l1.415-1.415a3 3 0 014.242 0l1.414 1.415a3 3 0 010 4.242l-1.414 1.415a3 3 0 01-4.242 0l-.74.739zm-2.873.045a1 1 0 00-1.119.205L3.525 11.44a1 1 0 000 1.415l1.414 1.414a1 1 0 001.415 0l1.414-1.414a1 1 0 000-1.415l-.25-.25-1.14 1.14-1.414-1.415zM12.5 3.38a1 1 0 00-1.414 0L9.672 4.793a1 1 0 000 1.414l.95-.95 1.414 1.415-.95.95a1 1 0 001.414 0l1.414-1.415a1 1 0 000-1.414z" fill="#181818" fill-rule="nonzero"/></g></symbol><symbol viewBox="0 0 24 24" id="delivery" xmlns="http://www.w3.org/2000/svg"><path d="M14 6c.513 0 .936.354.993.81l.007.107v9.166c0 .47-.386.858-.883.91L14 17h-2a2 2 0 11-4 0H6c-.513 0-.936-.354-.993-.81L5 16.083l-.001-.583H.5a.5.5 0 01-.09-.992L.5 14.5H6a.5.5 0 01.09.992L6 15.5h-.001l.001.583h2.222a2 2 0 013.48-.135l.076.135H14V6.917H6L5.999 8.5H9a.5.5 0 01.09.992L9 9.5H3a.5.5 0 01-.09-.992L3 8.5h1.999L5 6.917c0-.47.386-.858.883-.91L6 6h8zm6.429 2a1 1 0 01.672.26l.087.09 2.571 3a1 1 0 01.23.508L24 12v4a1 1 0 01-.883.993L23 17h-1a2 2 0 11-4 0h-1a1 1 0 01-.993-.883L16 16V9a1 1 0 01.883-.993L17 8h3.429zM10 16a1 1 0 100 2 1 1 0 000-2zm10 0a1 1 0 100 2 1 1 0 000-2zm.429-7H17v7h1.268l-.01.015a2 2 0 013.483 0L21.732 16H23v-4l-2.571-3zm-.286 1a1 1 0 01.608.206l.099.087.857.857a1 1 0 01.284.576l.009.131V13a1 1 0 01-.883.993L21 14h-2a1 1 0 01-.993-.883L18 13v-2a1 1 0 01.883-.993L19 10h1.143zM7 12.5a.5.5 0 01.09.992L7 13.5H2a.5.5 0 01-.09-.992L2 12.5h5zM20.143 11H19v2h2v-1.143L20.143 11zM6 10.5a.5.5 0 01.09.992L6 11.5H1a.5.5 0 01-.09-.992L1 10.5h5z" fill="#008827" fill-rule="nonzero"/></symbol><symbol viewBox="0 0 24 24" id="edit" xmlns="http://www.w3.org/2000/svg"><path d="M20 18.371a1 1 0 110 2H4a1 1 0 010-2h16zm-3.757-15.07l2.828 2.828c.39.39.402 1.012.025 1.389l-8.585 8.585a.948.948 0 01-.69.275l-2.778-.05a1.026 1.026 0 01-1-1l-.05-2.778a.948.948 0 01.275-.69l8.585-8.585c.377-.376 1-.365 1.39.025zm-.707 2.12L7.747 13.21l.01 1.404 1.405.01 7.788-7.788-1.414-1.414z" fill="#181818" fill-rule="evenodd"/></symbol><symbol fill="none" viewBox="0 0 16 16" id="ellipse" xmlns="http://www.w3.org/2000/svg"><circle xmlns="http://www.w3.org/2000/svg" cx="8" cy="8" r="7.5" stroke="#15960A"/><svg x="4" y="4"><path xmlns="http://www.w3.org/2000/svg" d="M.5 4L4 8l3.5-7" stroke="#15960A"/></svg></symbol><symbol viewBox="0 0 70 70" id="empty-cart" xmlns="http://www.w3.org/2000/svg"><g fill="none" fill-rule="evenodd"><circle cx="35" cy="35" r="35" fill="#EEE" fill-opacity=".6"/><path fill="#CCC" fill-rule="nonzero" d="M43 46a1 1 0 01.117 1.993L43 48H28a1 1 0 01-.117-1.993L28 46h15zM23.093 22c.41 0 .774.25.926.622l.039.115 1.716 6.289a.971.971 0 01.11-.02L26 29h20a1 1 0 01.989 1.151l-.024.112-3 11-.006.02a.73.73 0 01-.026.079l.032-.099c-.013.047-.03.093-.048.136l-.028.06-.021.038c-.01.019-.022.036-.033.053-.011.018-.024.035-.036.052l-.036.044-.024.028a.682.682 0 01-.046.047c-.016.016-.034.031-.052.046l-.029.024-.055.04-.036.023-.064.036-.033.016-.053.023-.06.022-.048.014-.051.013-.067.012-.03.003-.014.002-.064.005h-.038l-15-.015a1 1 0 01-.925-.622l-.039-.115L22.33 24H19a1 1 0 01-.993-.883L18 23a1 1 0 01.883-.993L19 22h4.093zm5.67 17.985l13.473.014L44.69 31l-18.379-.001 2.452 8.986z"/></g></symbol><symbol viewBox="0 0 18 18" id="envelope" xmlns="http://www.w3.org/2000/svg"><g fill="none" fill-rule="evenodd"><path d="M18 0v18H0V0z"/><path d="M18 7.192v7.33c0 .407-.157.755-.472 1.044-.315.29-.693.434-1.135.434H1.607c-.442 0-.82-.145-1.135-.434A1.367 1.367 0 010 14.523V7.192c.295.301.633.57 1.015.803 2.424 1.514 4.088 2.576 4.992 3.185.381.259.691.46.929.605.237.145.554.292.949.443.395.151.763.227 1.105.227h.02c.342 0 .71-.076 1.105-.227.395-.15.712-.298.95-.443.237-.144.547-.346.928-.605 1.139-.757 2.806-1.819 5.002-3.185.382-.24.717-.508 1.005-.803zM16.393 3c.435 0 .812.145 1.13.434.318.29.477.637.477 1.043 0 .487-.164.951-.492 1.394a4.596 4.596 0 01-1.226 1.136 8413.362 8413.362 0 00-4.7 3l-.427.282a20.74 20.74 0 01-.543.351c-.144.09-.318.19-.522.3-.204.11-.397.194-.578.25-.18.055-.348.082-.502.082h-.02c-.154 0-.322-.027-.502-.083a3.165 3.165 0 01-.578-.249c-.204-.11-.378-.21-.522-.3a20.95 20.95 0 01-.543-.35 47.94 47.94 0 00-.427-.282c-.609-.394-1.486-.956-2.631-1.685a469.786 469.786 0 01-2.06-1.316A4.818 4.818 0 01.553 5.941C.184 5.488 0 5.068 0 4.68 0 4.2.139 3.8.417 3.48.695 3.16 1.09 3 1.607 3z" fill="#181818"/></g></symbol><symbol id="exchange-header" viewBox="0 0 32 32" xmlns="http://www.w3.org/2000/svg"><defs id="bmdefs3728"><style id="bmstyle3726">.bmcls-1{fill:#1a1a18}</style></defs><path class="bmcls-1" d="M2 9l7-7v5.6h21v2.8H9v5.601zm28 14l-7 7v-5.6H2v-2.804h21V16z" id="bmpath3732" fill="#1a1a18" stroke-width=".121"/></symbol><symbol viewBox="0 0 40 40" id="facebook" xmlns="http://www.w3.org/2000/svg"><path d="M30.676 8H9.324C8.593 8 8 8.593 8 9.324v21.352C8 31.408 8.593 32 9.324 32h11.494v-9.294h-3.129v-3.621h3.129V16.41c0-3.099 1.894-4.785 4.659-4.785 1.325 0 2.464.097 2.796.141v3.24h-1.921c-1.5 0-1.792.721-1.792 1.771v2.311h3.584l-.465 3.63H24.56V32h6.115c.733 0 1.325-.592 1.325-1.324V9.324C32 8.593 31.408 8 30.676 8"/></symbol><symbol viewBox="0 0 24 24" id="filters" xmlns="http://www.w3.org/2000/svg"><path d="M9 12a1 1 0 011 1v4a1 1 0 01-2 0v-4a1 1 0 011-1zm12 2a1 1 0 010 2h-8a1 1 0 010-2h8zM5 14a1 1 0 010 2H3a1 1 0 010-2h2zm10-9a1 1 0 011 1v4a1 1 0 01-2 0V6a1 1 0 011-1zm6 2a1 1 0 010 2h-2a1 1 0 010-2h2zM11 7a1 1 0 010 2H3a1 1 0 110-2h8z" fill="#181818" fill-rule="nonzero"/></symbol><symbol viewBox="0 0 18 18" id="flip" xmlns="http://www.w3.org/2000/svg"><path d="M4.707.293a1 1 0 010 1.414L3.414 3H16a1 1 0 011 1v3a1 1 0 11-2 0V5.5a.5.5 0 00-.41-.492L14.5 5H3.414l1.293 1.293a1 1 0 01-1.414 1.414l-3-3a1 1 0 010-1.414l3-3a1 1 0 011.414 0zm8.586 17.414a1 1 0 010-1.414L14.586 15H2a1 1 0 01-1-1v-3a1 1 0 112 0v1.5a.5.5 0 00.41.492L3.5 13h11.086l-1.293-1.293a1 1 0 011.414-1.414l3 3a1 1 0 010 1.414l-3 3a1 1 0 01-1.414 0z" fill-rule="evenodd"/></symbol><symbol viewBox="0 0 32 32" id="form-error" xmlns="http://www.w3.org/2000/svg"><path d="M16 4c6.627 0 12 5.373 12 12s-5.373 12-12 12S4 22.627 4 16 9.373 4 16 4zm0-4C7.163 0 0 7.163 0 16s7.163 16 16 16 16-7.163 16-16S24.837 0 16 0z"/><path d="M17.79 23.06c0 .46-.15.64-.62.64H14.8c-.46 0-.64-.18-.64-.64v-1.83c0-.46.18-.66.64-.66h2.38c.46 0 .62.2.62.66zm-.31-4.2c0 .46-.15.66-.62.66h-1.69c-.46 0-.59-.2-.64-.66l-.35-3.74V9.4c0-.46.18-.66.64-.66h2.4c.46 0 .62.2.62.66v5.72z"/></symbol><symbol viewBox="0 0 32 32" id="form-valid" xmlns="http://www.w3.org/2000/svg"><path d="M16 4c6.627 0 12 5.373 12 12s-5.373 12-12 12S4 22.627 4 16 9.373 4 16 4zm0-4C7.163 0 0 7.163 0 16s7.163 16 16 16 16-7.163 16-16S24.837 0 16 0z"/><path d="M13.88 22.55l-5.83-5.84 2.12-2.12 3.71 3.72 7.73-7.73 2.12 2.13-9.85 9.84z"/></symbol><symbol viewBox="0 0 24 24" id="grid-layout-1" xmlns="http://www.w3.org/2000/svg"><path d="M15 7H9c-1.1 0-2 .9-2 2v6c0 1.1.9 2 2 2h6c1.1 0 2-.9 2-2V9c0-1.1-.9-2-2-2zm0 8H9V9h6v6z"/></symbol><symbol viewBox="0 0 24 24" id="grid-layout-2" xmlns="http://www.w3.org/2000/svg"><path d="M9 4H6c-1.1 0-2 .9-2 2v3c0 1.1.9 2 2 2h3c1.1 0 2-.9 2-2V6c0-1.1-.9-2-2-2zm0 5H6V6h3v3zM18 4h-3c-1.1 0-2 .9-2 2v3c0 1.1.9 2 2 2h3c1.1 0 2-.9 2-2V6c0-1.1-.9-2-2-2zm0 5h-3V6h3v3zM9 13H6c-1.1 0-2 .9-2 2v3c0 1.1.9 2 2 2h3c1.1 0 2-.9 2-2v-3c0-1.1-.9-2-2-2zm0 5H6v-3h3v3zM18 13h-3c-1.1 0-2 .9-2 2v3c0 1.1.9 2 2 2h3c1.1 0 2-.9 2-2v-3c0-1.1-.9-2-2-2zm0 5h-3v-3h3v3z"/></symbol><symbol viewBox="0 0 24 24" id="grid-layout-2-mob" xmlns="http://www.w3.org/2000/svg"><path d="M9.2 6.5H7.8c-.7 0-1.3.6-1.3 1.3v1.3c0 .7.6 1.3 1.3 1.3h1.3c.7 0 1.3-.6 1.3-1.3V7.8c.1-.7-.5-1.3-1.2-1.3zM16.2 6.5h-1.3c-.7 0-1.3.6-1.3 1.3v1.3c0 .7.6 1.3 1.3 1.3h1.3c.7 0 1.3-.6 1.3-1.3V7.8c0-.7-.6-1.3-1.3-1.3zM9.2 13.5H7.8c-.7 0-1.3.6-1.3 1.3v1.3c0 .7.6 1.3 1.3 1.3h1.3c.7 0 1.3-.6 1.3-1.3v-1.3c.1-.7-.5-1.3-1.2-1.3zM16.2 13.5h-1.3c-.7 0-1.3.6-1.3 1.3v1.3c0 .7.6 1.3 1.3 1.3h1.3c.7 0 1.3-.6 1.3-1.3v-1.3c0-.7-.6-1.3-1.3-1.3z"/></symbol><symbol viewBox="0 0 24 24" id="grid-layout-3" xmlns="http://www.w3.org/2000/svg"><path d="M5.7 7H4.3C3.6 7 3 7.6 3 8.3v1.3c0 .8.6 1.4 1.3 1.4h1.3c.8 0 1.4-.6 1.4-1.3V8.3C7 7.6 6.4 7 5.7 7zM12.7 7h-1.3c-.8 0-1.4.6-1.4 1.3v1.3c0 .8.6 1.4 1.3 1.4h1.3c.8 0 1.4-.6 1.4-1.3V8.3c0-.7-.6-1.3-1.3-1.3zM19.7 7h-1.3c-.8 0-1.4.6-1.4 1.3v1.3c0 .8.6 1.4 1.3 1.4h1.3c.8 0 1.4-.6 1.4-1.3V8.3c0-.7-.6-1.3-1.3-1.3zM5.7 14H4.3c-.7 0-1.3.6-1.3 1.3v1.3c0 .8.6 1.4 1.3 1.4h1.3c.8 0 1.4-.6 1.4-1.3v-1.3c0-.8-.6-1.4-1.3-1.4zM12.7 14h-1.3c-.7 0-1.3.6-1.3 1.3v1.3c0 .7.6 1.3 1.3 1.3h1.3c.7 0 1.3-.6 1.3-1.3v-1.3c0-.7-.6-1.3-1.3-1.3zM19.7 14h-1.3c-.7 0-1.3.6-1.3 1.3v1.3c0 .7.6 1.3 1.3 1.3h1.3c.7 0 1.3-.6 1.3-1.3v-1.3c0-.7-.6-1.3-1.3-1.3z"/></symbol><symbol viewBox="0 0 24 24" id="grid-layout-4" xmlns="http://www.w3.org/2000/svg"><path d="M5 5H4c-.6 0-1 .4-1 1v1c0 .6.4 1 1 1h1c.6 0 1-.4 1-1V6c0-.6-.4-1-1-1zM10 5H9c-.6 0-1 .4-1 1v1c0 .6.4 1 1 1h1c.6 0 1-.4 1-1V6c0-.6-.4-1-1-1zM15 5h-1c-.6 0-1 .4-1 1v1c0 .6.4 1 1 1h1c.6 0 1-.4 1-1V6c0-.6-.4-1-1-1zM20 5h-1c-.6 0-1 .4-1 1v1c0 .6.4 1 1 1h1c.6 0 1-.4 1-1V6c0-.6-.4-1-1-1zM5 10H4c-.6 0-1 .4-1 1v1c0 .6.4 1 1 1h1c.6 0 1-.4 1-1v-1c0-.6-.4-1-1-1zM10 10H9c-.6 0-1 .4-1 1v1c0 .6.4 1 1 1h1c.6 0 1-.4 1-1v-1c0-.6-.4-1-1-1zM15 10h-1c-.6 0-1 .4-1 1v1c0 .6.4 1 1 1h1c.6 0 1-.4 1-1v-1c0-.6-.4-1-1-1zM20 10h-1c-.6 0-1 .4-1 1v1c0 .6.4 1 1 1h1c.6 0 1-.4 1-1v-1c0-.6-.4-1-1-1zM5 15H4c-.6 0-1 .4-1 1v1c0 .6.4 1 1 1h1c.6 0 1-.4 1-1v-1c0-.6-.4-1-1-1zM10 15H9c-.6 0-1 .4-1 1v1c0 .6.4 1 1 1h1c.6 0 1-.4 1-1v-1c0-.6-.4-1-1-1zM15 15h-1c-.6 0-1 .4-1 1v1c0 .6.4 1 1 1h1c.6 0 1-.4 1-1v-1c0-.6-.4-1-1-1zM20 15h-1c-.6 0-1 .4-1 1v1c0 .6.4 1 1 1h1c.6 0 1-.4 1-1v-1c0-.6-.4-1-1-1z"/></symbol><symbol viewBox="0 0 32 32" id="hamburger" xmlns="http://www.w3.org/2000/svg"><path d="M1.331 2.044h29.464c.465 0 .775.31.775.775V4.37c0 .465-.31.775-.775.775H1.331c-.465 0-.775-.31-.775-.775V2.819c0-.465.31-.775.775-.775zM1.331 14.449h29.464c.465 0 .775.31.775.775v1.551c0 .465-.31.775-.775.775H1.331c-.465 0-.775-.31-.775-.775v-1.551c0-.465.31-.775.775-.775zM1.331 26.855h29.464c.465 0 .775.31.775.775v1.551c0 .465-.31.775-.775.775H1.331c-.465 0-.775-.31-.775-.775V27.63c0-.465.31-.775.775-.775z"/></symbol><symbol viewBox="0 0 24 24" id="heart" xmlns="http://www.w3.org/2000/svg"><path d="M20 9.533a4.51 4.51 0 01-1.346 3.21l-6.112 6.034a.772.772 0 01-1.085 0l-6.111-6.034a4.502 4.502 0 010-6.42 4.61 4.61 0 016.464 0l.19.188.19-.188A4.6 4.6 0 0115.422 5a4.6 4.6 0 013.232 1.323A4.51 4.51 0 0120 9.533zm-8 7.599l4.836-4.775.733-.724a2.95 2.95 0 00.883-2.1 2.95 2.95 0 00-.883-2.1 3.055 3.055 0 00-2.147-.877c-.806 0-1.579.316-2.147.877l-.733.723a.772.772 0 01-1.085 0l-.733-.723a3.066 3.066 0 00-4.293 0 2.941 2.941 0 000 4.2l5.569 5.5z"/></symbol><symbol viewBox="0 0 24 24" id="heart-filled" xmlns="http://www.w3.org/2000/svg"><path fill-rule="evenodd" d="M19.612 5.415A4.692 4.692 0 0016.262 4a4.692 4.692 0 00-3.35 1.415l-.912.93-.913-.93a4.675 4.675 0 00-6.7 0c-1.85 1.885-1.85 4.942 0 6.827l.913.93L12 20l6.7-6.828.912-.93A4.874 4.874 0 0021 8.828c0-1.28-.5-2.508-1.388-3.413z"/></symbol><symbol viewBox="0 0 60.734 60.733" id="icon-facebook" xmlns="http://www.w3.org/2000/svg"><path d="M57.378.001H3.352A3.352 3.352 0 000 3.353v54.026a3.353 3.353 0 003.352 3.354h29.086V37.214h-7.914v-9.167h7.914v-6.76c0-7.843 4.789-12.116 11.787-12.116 3.355 0 6.232.251 7.071.36v8.198l-4.854.002c-3.805 0-4.539 1.809-4.539 4.462v5.851h9.078l-1.187 9.166h-7.892v23.52h15.475a3.355 3.355 0 003.355-3.351V3.351a3.352 3.352 0 00-3.354-3.35z"/></symbol><symbol id="icon-naver" viewBox="0 0 12.1 12" xmlns="http://www.w3.org/2000/svg"><defs><style>.cbcls-1{fill:#41b65b}</style></defs><path class="cbcls-1" d="M8.21 6.42L3.72 0H0v12h3.9V5.58L8.38 12h3.72V0H8.21v6.42z"/></symbol><symbol viewBox="0 0 64 64" id="icon-play" xmlns="http://www.w3.org/2000/svg"><g transform="rotate(-180 32 32)" fill="none" fill-rule="evenodd"><circle cx="32" cy="32" r="32" fill="#000" opacity=".5" transform="matrix(-1 0 0 1 64 0)"/><path fill="#FFF" d="M23 32l14-9v18z"/></g></symbol><symbol viewBox="0 0 61 18" id="icon-twitter" xmlns="http://www.w3.org/2000/svg"><g fill="none" fill-rule="evenodd"><path d="M61 0v18H43V0z"/><path d="M18 3.775a7.249 7.249 0 01-2.121.597 3.782 3.782 0 001.624-2.095 7.296 7.296 0 01-2.345.919A3.646 3.646 0 0012.462 2C10.422 2 8.77 3.695 8.77 5.787c0 .296.033.585.096.863-3.07-.158-5.79-1.666-7.612-3.957-.318.56-.5 1.21-.5 1.904 0 1.313.652 2.473 1.643 3.152a3.605 3.605 0 01-1.673-.474v.048c0 1.835 1.273 3.365 2.963 3.713a3.614 3.614 0 01-1.668.065c.47 1.504 1.833 2.6 3.45 2.63A7.294 7.294 0 010 15.299 10.268 10.268 0 005.661 17c6.793 0 10.507-5.77 10.507-10.774 0-.165-.003-.328-.01-.49A7.598 7.598 0 0018 3.775" fill="#181818"/></g></symbol><symbol viewBox="0 0 23.625 23.625" id="info" xmlns="http://www.w3.org/2000/svg"><path d="M11.812 0C5.289 0 0 5.289 0 11.812s5.289 11.813 11.812 11.813 11.813-5.29 11.813-11.813S18.335 0 11.812 0zm2.459 18.307c-.608.24-1.092.422-1.455.548a3.838 3.838 0 01-1.262.189c-.736 0-1.309-.18-1.717-.539s-.611-.814-.611-1.367c0-.215.015-.435.045-.659a8.23 8.23 0 01.147-.759l.761-2.688c.067-.258.125-.503.171-.731.046-.23.068-.441.068-.633 0-.342-.071-.582-.212-.717-.143-.135-.412-.201-.813-.201-.196 0-.398.029-.605.09-.205.063-.383.12-.529.176l.201-.828c.498-.203.975-.377 1.43-.521a4.225 4.225 0 011.29-.218c.731 0 1.295.178 1.692.53.395.353.594.812.594 1.376 0 .117-.014.323-.041.617a4.129 4.129 0 01-.152.811l-.757 2.68a7.582 7.582 0 00-.167.736 3.892 3.892 0 00-.073.626c0 .356.079.599.239.728.158.129.435.194.827.194.185 0 .392-.033.626-.097.232-.064.4-.121.506-.17l-.203.827zm-.134-10.878a1.807 1.807 0 01-1.275.492c-.496 0-.924-.164-1.28-.492a1.57 1.57 0 01-.533-1.193c0-.465.18-.865.533-1.196a1.812 1.812 0 011.28-.497c.497 0 .923.165 1.275.497.353.331.53.731.53 1.196 0 .467-.177.865-.53 1.193z"/></symbol><symbol viewBox="0 0 40 40" id="instagram" xmlns="http://www.w3.org/2000/svg"><path d="M20 8c-3.26 0-3.667.015-4.947.072-1.278.06-2.148.261-2.913.558a5.876 5.876 0 00-2.126 1.384A5.855 5.855 0 008.63 12.14c-.297.765-.499 1.635-.558 2.913C8.012 16.333 8 16.74 8 20s.015 3.667.072 4.947c.06 1.277.261 2.148.558 2.913a5.885 5.885 0 001.384 2.126 5.868 5.868 0 002.126 1.384c.766.296 1.636.499 2.913.558 1.28.06 1.687.072 4.947.072s3.667-.015 4.947-.072c1.277-.06 2.148-.262 2.913-.558a5.898 5.898 0 002.126-1.384 5.86 5.86 0 001.384-2.126c.296-.765.499-1.636.558-2.913.06-1.28.072-1.687.072-4.947s-.015-3.667-.072-4.947c-.06-1.277-.262-2.149-.558-2.913a5.89 5.89 0 00-1.384-2.126A5.847 5.847 0 0027.86 8.63c-.765-.297-1.636-.499-2.913-.558C23.667 8.012 23.26 8 20 8zm0 2.16c3.203 0 3.585.016 4.85.071 1.17.055 1.805.249 2.227.415.562.217.96.477 1.382.896.419.42.679.819.896 1.381.164.422.36 1.057.413 2.227.057 1.266.07 1.646.07 4.85 0 3.204-.015 3.585-.074 4.85-.061 1.17-.256 1.805-.421 2.227a3.81 3.81 0 01-.899 1.382 3.744 3.744 0 01-1.38.896c-.42.164-1.065.36-2.235.413-1.274.057-1.649.07-4.859.07-3.211 0-3.586-.015-4.859-.074-1.171-.061-1.816-.256-2.236-.421a3.716 3.716 0 01-1.379-.899 3.644 3.644 0 01-.9-1.38c-.165-.42-.359-1.065-.42-2.235-.045-1.26-.061-1.649-.061-4.844 0-3.196.016-3.586.061-4.861.061-1.17.255-1.814.42-2.234.21-.57.479-.96.9-1.381.419-.419.81-.689 1.379-.898.42-.166 1.051-.361 2.221-.421 1.275-.045 1.65-.06 4.859-.06l.045.03zm0 3.678a6.162 6.162 0 100 12.324 6.162 6.162 0 100-12.324zM20 24c-2.21 0-4-1.79-4-4s1.79-4 4-4 4 1.79 4 4-1.79 4-4 4zm7.846-10.405a1.441 1.441 0 01-2.88 0 1.44 1.44 0 012.88 0z"/></symbol><symbol viewBox="0 0 38 38" id="item-added" xmlns="http://www.w3.org/2000/svg"><g fill="none" fill-rule="evenodd" transform="translate(2 2)"><circle cx="17" cy="17" r="17" stroke="#46BC1B" stroke-width="2.1"/><path fill="#47BD1C" fill-rule="nonzero" d="M14.499 21.768l-3.4-3.4a1.132 1.132 0 111.602-1.602l2.599 2.598 7.132-7.132a1.132 1.132 0 111.602 1.603l-7.933 7.933a1.13 1.13 0 01-1.602 0z"/></g></symbol><symbol viewBox="0 0 16 18" id="lock" xmlns="http://www.w3.org/2000/svg"><path d="M8 .455A6 6 0 0113.983 6H14a2 2 0 012 2v8a2 2 0 01-1.85 1.995L14 18H2a2 2 0 01-2-2V8a2.016 2.016 0 01.299-1.052 2.008 2.008 0 011.155-.873l-.035.01A1.985 1.985 0 012 6h.017A6 6 0 018 .455zM13.999 8H2v8h12l-.001-8zM8 9a2 2 0 011.001 3.732L9 14a1 1 0 01-2 0v-1.268A2 2 0 018 9zm0-6.545A4.001 4.001 0 004.031 5.95L4.026 6h7.947l-.004-.05A4.001 4.001 0 008 2.455z"/></symbol><symbol viewBox="0 0 42 42" id="minus"><path d="M0 20h42v2H0z"/></symbol><symbol fill="none" viewBox="0 0 24 25" id="mute" xmlns="http://www.w3.org/2000/svg"><path fill-rule="evenodd" clip-rule="evenodd" d="M12.433 3.599A1 1 0 0113 4.5v16a1 1 0 01-1.625.78L6.65 17.5H3a1 1 0 01-1-1v-8a1 1 0 011-1h3.65l4.725-3.78a1 1 0 011.058-.121zM11 6.58l-3.375 2.7A1 1 0 017 9.5H4v6h3a1 1 0 01.625.22L11 18.42V6.58zm5.586 5.919l-2.293-2.293 1.414-1.414L18 11.086l2.293-2.293 1.414 1.414-2.293 2.293 2.293 2.293-1.414 1.414L18 13.914l-2.293 2.293-1.414-1.414 2.293-2.293z" fill="#191919"/></symbol><symbol viewBox="0 0 24 9.73" id="navicon" xmlns="http://www.w3.org/2000/svg"><path d="M24 1.322c0 .675-.547 1.222-1.223 1.222H1.223A1.222 1.222 0 010 1.322v-.1C0 .547.547 0 1.223 0h21.555C23.453 0 24 .547 24 1.222v.1zM16.815 8.507c0 .675-.384 1.223-.856 1.223H.856C.383 9.73 0 9.182 0 8.507v-.1c0-.676.383-1.223.856-1.223h15.103c.473 0 .856.547.856 1.223v.1z"/></symbol><symbol viewBox="0 0 32 32" id="newsletter" xmlns="http://www.w3.org/2000/svg"><path d="M.739 12.512h1.238V31.5H.739V12.512z"/><path d="M.739 30.262h30.959V31.5H.739v-1.238zM30.584 12.512l.619 1.073-14.901 8.586-.619-1.073 14.901-8.586z"/><path d="M1.07 13.585l.619-1.073 14.901 8.586-.619 1.073L1.07 13.585zM24.681 4.669h1.238v11.558h-1.238V4.669z"/><path d="M6.518 4.669h1.238v11.558H6.518V4.669z"/><path d="M6.518 4.669h19.401v1.238H6.518V4.669zM30.46 12.512h1.238V31.5H30.46V12.512z"/><path d="M31.285 12.429l-.702.908-5.903-4.458.702-.908 5.903 4.458zM21.791 4.999l-.702.908-5.944-4.458.702-.908 5.944 4.458zM1.441 13.338l-.702-.867 5.903-4.458.702.867-5.903 4.458z"/><path d="M10.935 5.907l-.702-.908L16.136.5l.702.908-5.903 4.499zM10.646 8.797h11.145v1.238H10.646V8.797zM10.646 11.686h11.145v1.238H10.646v-1.238zM10.646 14.576h11.145v1.238H10.646v-1.238z"/></symbol><symbol viewBox="0 0 24 24" id="p-trash-can"><path d="M20 6a1 1 0 01.117 1.993L20 8h-1.08l-.923 11.083A1 1 0 0117 20H7a1 1 0 01-.997-.917L5.08 8H4a1 1 0 01-.993-.883L3 7a1 1 0 01.883-.993L4 6h16zm-3.087 2H7.087l.833 10h8.16l.833-10zM10 10a1 1 0 01.993.883L11 11v4a1 1 0 01-1.993.117L9 15v-4a1 1 0 011-1zm4 0a1 1 0 01.993.883L15 11v4a1 1 0 01-1.993.117L13 15v-4a1 1 0 011-1zm0-7a1 1 0 010 2h-4a1 1 0 110-2h4z"/></symbol><symbol viewBox="0 0 34 32" id="pdp-delivery" xmlns="http://www.w3.org/2000/svg"><path fill="none" stroke="#000" stroke-width="1.812" stroke-linecap="round" stroke-linejoin="round" d="M23.23 16.661l-8.079 8.057-4.339-4.322"/><path fill="none" stroke="#000" stroke-width="1.812" stroke-miterlimit="10" d="M1.84 4.107h29.933c.242 0 .438.196.438.438v25.611a.438.438 0 01-.438.438H1.84a.438.438 0 01-.438-.438V4.545c0-.242.196-.438.438-.438zM1.358 10.054h30.971"/><path fill="none" stroke="#000" stroke-width="1.812" stroke-miterlimit="10" stroke-linecap="round" d="M24.342 1.406v5.403M9.201 1.406v5.403"/></symbol><symbol viewBox="0 0 50 32" id="pdp-free-shipping" xmlns="http://www.w3.org/2000/svg"><path fill="none" stroke="#000" stroke-width="2.01" stroke-miterlimit="10" d="M6.605 26.085H2.292a.486.486 0 01-.486-.486V1.99c0-.268.217-.486.486-.486h26.154c.268 0 .486.217.486.486v24.095M42.468 26.085h5.614a.486.486 0 00.486-.486v-8.742a1.002 1.002 0 00-.405-.751l-1.984-1.294a2.92 2.92 0 01-.655-.643l-4.862-7.172a1.032 1.032 0 00-.755-.403h-7.915M14.998 26.299h18.946"/><path fill="none" stroke="#000" stroke-width="2.01" stroke-linecap="round" stroke-linejoin="round" d="M42.337 26.299a4.196 4.196 0 11-8.392 0 4.196 4.196 0 018.392 0zM14.998 26.299a4.196 4.196 0 11-8.392 0 4.196 4.196 0 018.392 0z"/></symbol><symbol viewBox="0 0 33 32" id="pdp-returns" xmlns="http://www.w3.org/2000/svg"><path fill="none" stroke="#000" stroke-width="1.842" stroke-miterlimit="10" d="M1.862 6.392H31.2M16.531 6.53V1.391M1.43 6.348c.017-.288.149-.543.351-.72l4.993-3.902c.219-.157.488-.258.78-.276h17.951c.3.015.575.116.802.279l4.961 3.907c.206.175.342.426.365.709v23.82a.445.445 0 01-.445.445H1.877a.445.445 0 01-.445-.445z"/><path fill="none" stroke="#000" stroke-width="1.842" stroke-linecap="round" stroke-linejoin="round" d="M9.286 15.089h9.913a4.64 4.64 0 014.64 4.617v.135a4.685 4.685 0 01-4.671 4.676h-2.975"/><path fill="none" stroke="#000" stroke-width="1.842" stroke-linecap="round" stroke-linejoin="round" d="M12.831 18.696l-3.607-3.607 3.607-3.607"/></symbol><symbol viewBox="0 0 32 32" id="pdp-zoom" xmlns="http://www.w3.org/2000/svg"><path d="M22.844 22.844a.876.876 0 011.269 0l7.705 7.705c.363.363.363.907 0 1.269s-.907.363-1.269 0l-7.705-7.705a.876.876 0 010-1.269zM7.433 12.873h12.691c.544 0 .907.363.907.906s-.363.906-.907.906H7.433c-.544 0-.907-.363-.907-.906s.363-.906.907-.906z"/><path d="M13.779 6.527c.544 0 .906.363.906.907v12.691c0 .544-.363.907-.906.907s-.906-.363-.906-.907V7.434c0-.544.363-.907.906-.907z"/><path d="M13.779.181C6.255.181.181 6.255.181 13.779s6.074 13.598 13.598 13.598c7.524 0 13.598-6.074 13.598-13.598S21.213.181 13.779.181zm0 25.383c-6.527 0-11.785-5.258-11.785-11.785S7.252 1.994 13.779 1.994s11.785 5.258 11.785 11.785-5.348 11.785-11.785 11.785z"/></symbol><symbol viewBox="0 0 40 40" id="pinterest" xmlns="http://www.w3.org/2000/svg"><path d="M20.018 8C13.38 8 8 13.367 8 19.987c0 5.079 3.166 9.417 7.637 11.162-.105-.949-.2-2.403.04-3.439.22-.937 1.41-5.957 1.41-5.957s-.36-.72-.36-1.781c0-1.663.97-2.911 2.174-2.911 1.026 0 1.522.769 1.522 1.688 0 1.029-.655 2.567-.995 3.992-.286 1.193.602 2.165 1.78 2.165 2.133 0 3.777-2.245 3.777-5.487 0-2.861-2.068-4.869-5.02-4.869-3.419 0-5.423 2.562-5.423 5.199 0 1.033.395 2.143.891 2.741.1.12.113.225.085.345-.09.375-.293 1.199-.334 1.363-.053.225-.173.271-.402.165-1.499-.69-2.44-2.878-2.44-4.646 0-3.776 2.755-7.252 7.94-7.252 4.168 0 7.41 2.967 7.41 6.923 0 4.135-2.613 7.462-6.248 7.462-1.217 0-2.36-.629-2.765-1.379l-.75 2.848c-.27 1.045-1.007 2.352-1.502 3.146 1.125.345 2.311.535 3.558.535C26.61 32 32 26.635 32 20.013c0-6.623-5.391-11.987-12.015-11.987L20.018 8z"/></symbol><symbol viewBox="0 0 42 42" id="plus"><path d="M42 20H22V0h-2v20H0v2h20v20h2V22h20z"/></symbol><symbol viewBox="0 0 28 31" id="present" xmlns="http://www.w3.org/2000/svg"><path d="M27 10h-6.9c2.2-1.2 4.4-2.8 4.8-4.8.3-1.4-.1-2.7-1.2-3.8C22.6.3 21.5.1 20.7.1c-2.1 0-4 1.7-5.8 5.1-.4.7-.7 1.4-.9 2C12.7 4 10.4 0 7.3 0c-.7 0-1.9.2-3 1.3-1.1 1.2-1.5 2.5-1.2 3.9.2.7 1 2.7 4.8 4.8H1c-.6 0-1 .4-1 1v4c0 .6.4 1 1 1h2v14c0 .6.4 1 1 1h20c.6 0 1-.4 1-1V16h2c.6 0 1-.4 1-1v-4c0-.6-.4-1-1-1zM11 29H5V16h6v13zm0-15H2v-2h9v2zM5.7 2.8c.6-.6 1.1-.8 1.6-.8 3 0 5.7 8 5.7 8S2.1 6.4 5.7 2.8zM15 29h-2V16h2v13zm0-15h-2v-2h2v2zm0-4s2.7-8 5.7-8c.5 0 1 .2 1.5.7C25.9 6.4 15 10 15 10zm8 19h-6V16h6v13zm3-15h-9v-2h9v2z" fill="#CCC" fill-rule="nonzero"/></symbol><symbol viewBox="0 0 24 24" id="puma-arrow-top" xmlns="http://www.w3.org/2000/svg"><path d="M11.42 6.47a.75.75 0 011.06 0l4.243 4.242a.75.75 0 01-1.06 1.061l-2.914-2.912L12.75 17a.75.75 0 01-.64.742l-.11.008a.75.75 0 01-.75-.75V8.761l-3.013 3.012a.75.75 0 01-.983.067l-.077-.067a.75.75 0 010-1.06z" fill="#181818" fill-rule="nonzero"/></symbol><symbol viewBox="0 0 48 37" id="puma-logo" xmlns="http://www.w3.org/2000/svg"><path d="M47.689.517c-.834-1.066-2.291-.213-2.933.16-4.569 2.692-5.243 7.432-6.834 10.154-1.253 2.178-3.304 3.779-5.159 3.903-1.373.098-2.861-.167-4.338-.81-3.613-1.562-5.56-3.583-6.034-3.94-.973-.739-8.459-8.03-14.559-8.327 0 0-.744-1.5-.93-1.526C6.457.08 6 1.033 5.669 1.133c-.3.105-.825-1.024-1.13-.975C4.233.2 3.936 1.33 3.34 1.913c-.439.425-.973.398-1.275.926-.104.192-.068.53-.186.84-.253.641-1.102.708-1.11 1.394 0 .762.714.907 1.338 1.438.496.425.53.725 1.109.924.515.176 1.264-.374 1.928-.177.553.163 1.085.279 1.204.846.108.513 0 1.316-.682 1.226-.222-.03-1.194-.348-2.395-.22-1.45.154-3.105.618-3.267 2.22-.083.895 1.028 1.942 2.11 1.733.742-.143.392-1.013.797-1.433.535-.541 3.545 1.888 6.344 1.888 1.186 0 2.063-.3 2.935-1.21.078-.057.185-.203.31-.218.113.015.324.128.39.175 2.262 1.793 3.967 5.399 12.26 5.441 1.164.014 2.498.558 3.591 1.553.96.866 1.528 2.251 2.075 3.65.836 2.106 2.322 4.139 4.584 6.407.119.135 1.98 1.561 2.119 1.666.025.021.168.334.106.51-.039 1.38-.245 5.34 2.731 5.506.731.04.549-.463.549-.82-.01-.683-.129-1.371.226-2.08.507-.957-1.051-1.418-1.017-3.513.037-1.567-1.291-1.302-1.969-2.498-.381-.687-.736-1.065-.699-1.894.145-4.76-1.034-7.896-1.61-8.654-.455-.587-.847-.806-.414-1.078 2.481-1.632 3.05-3.15 3.05-3.15 1.32-3.081 2.512-5.89 4.15-7.138.332-.241 1.177-.88 1.703-1.12 1.527-.725 2.346-1.156 2.777-1.576.711-.675 1.27-2.107.588-2.96h-.001z"/></symbol><symbol viewBox="0 0 64 32" id="puma-logo-with-text" xmlns="http://www.w3.org/2000/svg"><path d="M34.455.43c-.205.041-.41.778-.819 1.188-.287.287-.656.287-.86.615-.082.123-.041.369-.123.574-.164.451-.738.492-.738.942 0 .492.492.615.901.983.328.287.369.492.738.615.328.123.819-.246 1.27-.123.369.123.738.205.819.574s0 .901-.451.819c-.164 0-.819-.246-1.598-.164-.983.123-2.09.41-2.172 1.516-.041.615.697 1.311 1.393 1.188.492-.082.246-.697.533-.983.369-.369 2.376 1.27 4.261 1.27.778 0 1.393-.205 1.967-.819.041-.041.123-.164.205-.164s.205.082.246.123c1.516 1.229 2.663 3.647 8.195 3.688.778 0 1.68.369 2.417 1.024.656.615 1.024 1.557 1.393 2.499.574 1.434 1.557 2.827 3.073 4.343.082.082 1.311 1.065 1.434 1.106 0 0 .123.246.082.369-.041.942-.164 3.606 1.844 3.729.492.041.369-.328.369-.574 0-.451-.082-.942.164-1.393.328-.656-.697-.942-.697-2.376.041-1.065-.86-.901-1.311-1.68-.246-.451-.492-.738-.492-1.311.082-3.237-.697-5.367-1.065-5.859-.287-.41-.574-.533-.287-.738 1.68-1.106 2.049-2.131 2.049-2.131.901-2.09 1.68-4.015 2.786-4.835.205-.164.778-.615 1.147-.778 1.024-.492 1.557-.778 1.844-1.065.451-.451.86-1.434.41-2.008-.574-.738-1.516-.164-1.967.123-3.073 1.844-3.524 5.04-4.589 6.883-.86 1.475-2.213 2.581-3.442 2.663-.942.082-1.926-.123-2.909-.574-2.417-1.065-3.729-2.417-4.056-2.663-.656-.492-5.654-5.449-9.752-5.654 0 0-.492-1.024-.615-1.024-.287-.041-.615.615-.819.697-.246.123-.574-.656-.778-.615zM16.55 29.931a.718.718 0 01-.697-.697V16.491h-4.22v14.054c0 .697.574 1.27 1.229 1.27h7.293c.697 0 1.229-.574 1.229-1.27V16.491h-4.138v12.743a.718.718 0 01-.697.697zM30.563 16.492h-6.351c-.738 0-1.352.615-1.352 1.352v13.931h4.179V19.032c0-.41.328-.697.697-.697.41 0 .697.287.697.697v12.784h4.179V18.991c0-.369.328-.697.697-.697s.697.328.697.697v12.784h4.179V17.844c0-.778-.615-1.352-1.352-1.352h-6.269zM8.847 27.923h-4.22v3.851H.448V16.491h8.44c.738 0 1.352.615 1.352 1.393v8.686c0 .778-.615 1.352-1.393 1.352zm-2.786-8.891c0-.41-.328-.738-.697-.738h-.697v7.744h.697c.369 0 .697-.287.697-.738v-6.269zM54.491 29.972c0 1.024-.819 1.885-1.844 1.885s-1.885-.819-1.885-1.885c0-1.024.819-1.885 1.844-1.885s1.885.819 1.885 1.885zm-1.885-1.598c-.86 0-1.557.738-1.557 1.598 0 .901.697 1.598 1.557 1.598s1.557-.738 1.557-1.598-.697-1.598-1.557-1.598z"/><path d="M53.507 31.078h-.492l-.656-.86v.86h-.41v-2.172h.41c.574 0 .901.205.901.656a.616.616 0 01-.451.615h-.041l.738.901zm-1.065-1.229c.287 0 .451-.123.451-.328s-.164-.287-.451-.287h-.082v.574l.082.041zM45.272 31.775v-3.851h-1.434v3.851h-4.179V17.844c0-.778.615-1.352 1.352-1.352h7.047c.738 0 1.352.615 1.352 1.352v13.931h-4.138zm0-5.737v-7.006c0-.369-.328-.697-.697-.697s-.697.328-.697.697v7.047l1.393-.041z"/></symbol><symbol viewBox="0 0 24 24" id="qrcode-solid" xmlns="http://www.w3.org/2000/svg"><path d="M.167 10.554H10.22V.5H.167v10.054zm3.35-6.703H6.87v3.351H3.518v-3.35zM13.572.5v10.054h10.054V.5H13.571zm6.703 6.702h-3.351v-3.35h3.35v3.35zM.167 23.958H10.22V13.905H.167v10.053zm3.35-6.702H6.87v3.351H3.518v-3.351zm18.432-3.351h1.676v6.702h-5.027v-1.675h-1.675v5.026H13.57V13.905h5.027v1.675h3.351v-1.675zm0 8.378h1.676v1.675h-1.676v-1.675zm-3.35 0h1.675v1.675h-1.676v-1.675z" fill="currentColor"/></symbol><symbol fill="currentColor" class="cybi cybi-question-circle" viewBox="0 0 16 16" id="question-circle" xmlns="http://www.w3.org/2000/svg"><path d="M8 15A7 7 0 118 1a7 7 0 010 14zm0 1A8 8 0 108 0a8 8 0 000 16z"/><path d="M5.255 5.786a.237.237 0 00.241.247h.825c.138 0 .248-.113.266-.25.09-.656.54-1.134 1.342-1.134.686 0 1.314.343 1.314 1.168 0 .635-.374.927-.965 1.371-.673.489-1.206 1.06-1.168 1.987l.003.217a.25.25 0 00.25.246h.811a.25.25 0 00.25-.25v-.105c0-.718.273-.927 1.01-1.486.609-.463 1.244-.977 1.244-2.056 0-1.511-1.276-2.241-2.673-2.241-1.267 0-2.655.59-2.75 2.286zm1.557 5.763c0 .533.425.927 1.01.927.609 0 1.028-.394 1.028-.927 0-.552-.42-.94-1.029-.94-.584 0-1.009.388-1.009.94z"/></symbol><symbol viewBox="0 0 24 24" id="red-heart" xmlns="http://www.w3.org/2000/svg"><path fill="none" stroke="red" stroke-linecap="round" stroke-linejoin="round" stroke-width="1.5" d="M19.612 5.415A4.692 4.692 0 0016.262 4a4.692 4.692 0 00-3.35 1.415l-.912.93-.913-.93a4.675 4.675 0 00-6.7 0c-1.85 1.885-1.85 4.942 0 6.827l.913.93L12 20l6.7-6.828.912-.93A4.874 4.874 0 0021 8.828c0-1.28-.5-2.508-1.388-3.413z"/></symbol><symbol viewBox="0 0 24 24" id="red-heart-filled" xmlns="http://www.w3.org/2000/svg"><path fill="red" fill-rule="evenodd" stroke="red" stroke-linecap="round" stroke-linejoin="round" stroke-width="1.5" d="M19.612 5.415A4.692 4.692 0 0016.262 4a4.692 4.692 0 00-3.35 1.415l-.912.93-.913-.93a4.675 4.675 0 00-6.7 0c-1.85 1.885-1.85 4.942 0 6.827l.913.93L12 20l6.7-6.828.912-.93A4.874 4.874 0 0021 8.828c0-1.28-.5-2.508-1.388-3.413z"/></symbol><symbol viewBox="0 0 24 24" id="return" xmlns="http://www.w3.org/2000/svg"><path d="M4.207 11.801c.297-.331.76-.331 1.09-.066l1.253 1.127V12c0-3.881 3.133-7 6.96-7 3.823.001 6.99 3.12 6.99 7 0 3.881-3.133 7-6.96 7a.749.749 0 01-.759-.763c0-.432.33-.763.76-.763 3.001 0 5.441-2.454 5.441-5.473 0-3.02-2.44-5.473-5.442-5.473-3 0-5.442 2.454-5.442 5.473v.863l1.254-1.128c.33-.298.79-.265 1.088.066.297.332.264.796-.065 1.095l-2.573 2.288a.727.727 0 01-.495.2.803.803 0 01-.528-.2l-2.54-2.288c-.296-.299-.33-.797-.032-1.096z" fill="#666" fill-rule="nonzero"/></symbol><symbol viewBox="0 0 17 16" id="ruler" xmlns="http://www.w3.org/2000/svg"><path d="M5.318 15.425a1 1 0 01-1.414 0l-2.829-2.829a1 1 0 010-1.414L11.682.575a1 1 0 011.414 0l2.829 2.829a1 1 0 010 1.414L5.318 15.425zm7.071-14.143L1.782 11.89l2.829 2.829.707-.708-.354-.353a.5.5 0 11.708-.707l.353.353.707-.707-1.06-1.06a.5.5 0 11.707-.708l1.06 1.061.707-.707-.353-.354a.5.5 0 11.707-.707l.354.354.707-.707L8.5 8.708A.5.5 0 119.207 8l1.06 1.06.708-.706L10.62 8a.5.5 0 11.707-.707l.354.353.707-.707-1.06-1.06a.5.5 0 11.707-.707l1.06 1.06.707-.707-.353-.353a.5.5 0 11.707-.708l.353.354.708-.707-2.829-2.829z" fill="#181818" fill-rule="evenodd"/></symbol><symbol viewBox="0 0 33 32" id="search" xmlns="http://www.w3.org/2000/svg"><path d="M23.219 4.719c-5.137-5.137-13.397-5.137-18.534 0s-5.137 13.397 0 18.534c5.137 5.137 13.397 5.137 18.534 0s5.137-13.397 0-18.534zm-2.115 16.418c-3.928 3.928-10.375 3.928-14.303 0s-3.928-10.375 0-14.303c3.928-3.928 10.375-3.928 14.303 0s3.928 10.375 0 14.303z"/><path d="M22.011 21.036c.705-.705 1.209-1.108 2.518.201l6.044 5.943c1.309 1.309 1.914 2.921 1.209 3.626s-2.317.101-3.626-1.209l-6.044-5.943c-1.309-1.309-.806-1.914-.101-2.619z"/></symbol><symbol viewBox="0 0 32 29" id="slider-handle" xmlns="http://www.w3.org/2000/svg"><g fill="none" fill-rule="evenodd"><path fill="#000" d="M0 0h15.951l15.951 15.061-15.95 13.854H0z"/><path d="M14.5 9.036v10.958M9.5 9.036v10.958" stroke="#FFF" stroke-linecap="square"/></g></symbol><symbol viewBox="0 0 32 32" id="social-fb" xmlns="http://www.w3.org/2000/svg"><path d="M17.7 28.25v-11.4h3.825l.575-4.45h-4.4V9.575c0-1.275.35-2.175 2.2-2.175h2.35V3.425c-.4-.05-1.8-.175-3.425-.175-3.4 0-5.725 2.075-5.725 5.875V12.4H9.25v4.45h3.85v11.4h4.6z"/></symbol><symbol viewBox="0 0 32 32" id="social-instagram" xmlns="http://www.w3.org/2000/svg"><path d="M21.377 29.115H10.623c-4.118 0-7.475-3.331-7.475-7.423V10.308c0-4.092 3.357-7.423 7.475-7.423h10.754c4.118 0 7.475 3.331 7.475 7.423v11.384c0 4.092-3.357 7.423-7.475 7.423zm0-1.967c1.469 0 2.833-.577 3.882-1.6 1.049-1.049 1.626-2.413 1.626-3.856V10.308c0-1.443-.577-2.833-1.626-3.856s-2.413-1.6-3.882-1.6H10.623c-1.469 0-2.833.577-3.882 1.6-1.049 1.049-1.626 2.413-1.626 3.856v11.384c0 1.443.577 2.833 1.626 3.856a5.413 5.413 0 003.882 1.6h10.754z"/><path d="M23.108 15.895c0 3.882-3.174 7.03-7.082 7.03s-7.082-3.148-7.082-7.029 3.174-7.029 7.082-7.029 7.082 3.148 7.082 7.029zM16 11.305c-2.57 0-4.643 2.072-4.643 4.616s2.072 4.616 4.643 4.616 4.643-2.072 4.643-4.616c0-2.57-2.072-4.616-4.643-4.616zM24.918 8.761c0 .918-.761 1.652-1.679 1.652s-1.679-.734-1.679-1.652.761-1.652 1.679-1.652 1.679.734 1.679 1.652z"/></symbol><symbol viewBox="0 0 32 32" id="social-pinterest" xmlns="http://www.w3.org/2000/svg"><path d="M13.696 21.376c-.8 4.32-1.792 8.448-4.736 10.624-.896-6.528 1.344-11.424 2.368-16.64-1.76-3.04.224-9.12 3.936-7.616 4.576 1.856-3.968 11.232 1.76 12.416 6.048 1.248 8.48-10.56 4.768-14.4-5.376-5.536-15.648-.128-14.4 7.808.32 1.952 2.272 2.528.8 5.216-3.456-.768-4.48-3.52-4.32-7.2C4.096 5.568 9.184 1.344 14.304.768c6.464-.768 12.544 2.4 13.408 8.608.96 7.008-2.912 14.56-9.856 14.016-1.888-.16-2.688-1.088-4.16-2.016z"/></symbol><symbol viewBox="0 0 39 32" id="social-twitter" xmlns="http://www.w3.org/2000/svg"><path d="M13.538 29.89c12.87 0 19.903-10.69 19.903-19.938 0-.316 0-.598-.035-.914a13.643 13.643 0 003.481-3.622c-1.266.563-2.602.949-4.009 1.09 1.442-.879 2.567-2.251 3.094-3.868-1.336.809-2.848 1.371-4.431 1.688a6.929 6.929 0 00-5.099-2.215 6.994 6.994 0 00-6.998 6.998c0 .563.07 1.09.176 1.582-5.802-.281-10.971-3.095-14.418-7.314-.633 1.055-.949 2.251-.949 3.552a6.997 6.997 0 003.13 5.837 6.88 6.88 0 01-3.165-.879v.105c0 3.411 2.426 6.224 5.626 6.892a6.372 6.372 0 01-1.829.246 5.25 5.25 0 01-1.301-.141 7.047 7.047 0 006.541 4.888 14.108 14.108 0 01-8.686 2.989c-.563 0-1.125-.035-1.653-.105 2.989 1.969 6.681 3.13 10.62 3.13z"/></symbol><symbol viewBox="0 0 46 32" id="social-youtube" xmlns="http://www.w3.org/2000/svg"><path d="M33.727.5H12.392C.721.5.721 3.828.721 11.988v7.978c0 7.796 1.641 11.534 11.671 11.534h21.335c9.026 0 11.671-2.188 11.671-11.488v-8.024C45.398 3.417 44.942.5 33.727.5zM18.5 22.063V9.526l12.035 6.246L18.5 22.063z"/></symbol><symbol viewBox="0 0 23 32" id="store-locator" xmlns="http://www.w3.org/2000/svg"><path d="M22.628 11.787C22.628 5.508 17.62.5 11.5.5S.372 5.587.372 11.787c0 1.51.238 2.862.715 4.213 0 0 .159.397.556 1.113.238.397.477.795.715 1.113.795 1.351 1.987 3.18 3.259 5.167 2.623 4.133 5.882 8.108 5.882 8.108s3.577-4.61 6.359-8.903c1.113-1.749 2.146-3.338 2.862-4.531.159-.238.318-.556.477-.874.477-.795.715-1.272.715-1.272.477-1.192.715-2.623.715-4.133zm-2.225 3.736s-.159.397-.556 1.113c-.159.238-.318.477-.397.715-.636 1.033-1.431 2.385-2.464 3.895-2.385 3.736-5.485 7.631-5.485 7.631s-2.782-3.497-5.008-6.915a193.496 193.496 0 01-2.782-4.531c-.238-.318-.397-.636-.636-.954-.397-.636-.477-.954-.477-.954a10.697 10.697 0 01-.636-3.656c0-5.405 4.292-9.777 9.538-9.777s9.538 4.372 9.538 9.777c0 1.272-.159 2.544-.636 3.656z"/><path d="M11.659 6.62c-2.703 0-4.928 2.226-4.928 5.008s2.226 5.008 4.928 5.008 4.928-2.226 4.928-5.008-2.226-5.008-4.928-5.008zm0 8.744c-1.987 0-3.656-1.669-3.656-3.736s1.669-3.736 3.656-3.736 3.656 1.669 3.656 3.736-1.669 3.736-3.656 3.736z"/></symbol><symbol viewBox="0 0 32 32" id="support" xmlns="http://www.w3.org/2000/svg"><path d="M16 .5C7.475.5.5 7.475.5 16S7.475 31.5 16 31.5 31.5 24.525 31.5 16 24.525.5 16 .5zm0 29.45C8.328 29.95 2.05 23.673 2.05 16S8.327 2.05 16 2.05 29.95 8.327 29.95 16 23.673 29.95 16 29.95z"/><path d="M14.062 19.023c0 .387.155.542.542.542h2.092c.387 0 .542-.155.542-.542v-.852c0-.775.31-1.008 1.008-1.317l1.317-.62c.93-.387 2.17-1.395 2.17-3.642v-1.085c0-1.938-1.395-3.797-5.425-3.797s-5.348 1.86-5.348 3.797v1.395c0 .387.155.62.62.62h1.938c.387 0 .542-.155.542-.62v-.93c0-1.162.775-1.783 2.325-1.783 1.473 0 2.325.62 2.325 1.783v.697c0 .853-.542 1.24-.852 1.395l-2.17 1.085c-.697.387-1.473.775-1.473 2.092v1.782h-.155zm3.178 2.325c0-.387-.155-.62-.542-.62h-2.015c-.387 0-.542.155-.542.62v1.86c0 .387.155.62.542.62h2.015c.387 0 .542-.155.542-.62v-1.86z"/></symbol><symbol fill-rule="evenodd" clip-rule="evenodd" viewBox="0 0 24 24" id="trash-can" xmlns="http://www.w3.org/2000/svg"><path d="M19 24H5a2 2 0 01-2-2V5H2V3h6V1.5C8 .673 8.673 0 9.5 0h5c.825 0 1.5.671 1.5 1.5V3h6v2h-1v17a2 2 0 01-2 2zm0-19H5v16.5a.5.5 0 00.5.5h13a.5.5 0 00.5-.5V5zm-9 4a1 1 0 00-2 0v9a1 1 0 002 0V9zm6 0a1 1 0 00-2 0v9a1 1 0 002 0V9zm-2-7h-4v1h4V2z"/></symbol><symbol viewBox="0 0 40 40" id="twitter" xmlns="http://www.w3.org/2000/svg"><path d="M31.953 12.382a9.8 9.8 0 01-2.825.794 5.063 5.063 0 002.163-2.792 10.01 10.01 0 01-3.127 1.214A4.844 4.844 0 0024.574 10c-2.718 0-4.92 2.259-4.92 5.041 0 .4.045.785.127 1.153-4.09-.198-7.715-2.212-10.141-5.256a5.04 5.04 0 00-.666 2.538 5.08 5.08 0 002.188 4.2 4.812 4.812 0 01-2.228-.632v.062c0 2.445 1.693 4.485 3.946 4.95a4.88 4.88 0 01-2.212.086c.63 2.003 2.445 3.463 4.604 3.504A9.714 9.714 0 018 27.736 13.745 13.745 0 0015.557 30c9.053 0 13.998-7.685 13.998-14.34 0-.214 0-.43-.015-.645.961-.707 1.8-1.6 2.46-2.613l-.047-.02z"/></symbol><symbol fill="none" viewBox="0 0 24 25" id="unmute" xmlns="http://www.w3.org/2000/svg"><path fill-rule="evenodd" clip-rule="evenodd" d="M13 4.5a1 1 0 00-1.625-.78L6.65 7.5H3a1 1 0 00-1 1v8a1 1 0 001 1h3.65l4.725 3.78A1 1 0 0013 20.5v-16zM7.625 9.28L11 6.58v11.84l-3.375-2.7A1 1 0 007 15.5H4v-6h3a1 1 0 00.625-.22zm12.326-.074a8.606 8.606 0 00-1.865-2.792L19.5 5a10.606 10.606 0 010 15l-1.414-1.414a8.606 8.606 0 001.865-9.38zm-4.256 1.763a4.001 4.001 0 00-.867-1.297l1.415-1.415a6 6 0 010 8.486l-1.415-1.414a4.003 4.003 0 00.867-4.36z" fill="#191919"/></symbol><symbol viewBox="0 0 32 32" id="video-pause" xmlns="http://www.w3.org/2000/svg"><path fill="#fff" opacity=".15" d="M31.75 16c0 8.698-7.052 15.75-15.75 15.75S.25 24.698.25 16 7.301.25 16 .25 31.75 7.301 31.75 16z"/><path fill="#fff" d="M12.749 10.75h1.81v10.5h-1.81v-10.5zM17.441 10.75h1.81v10.5h-1.81v-10.5z"/><path fill="#fff" d="M16 2.06c7.699 0 13.94 6.241 13.94 13.94S23.699 29.94 16 29.94 2.06 23.699 2.06 16C2.068 8.305 8.304 2.069 15.999 2.06zm0-1.81C7.302.25.25 7.301.25 16S7.301 31.75 16 31.75c8.698 0 15.75-7.052 15.75-15.75S24.698.25 16 .25z"/></symbol><symbol viewBox="0 0 32 32" id="video-play" xmlns="http://www.w3.org/2000/svg"><path fill="#fff" opacity=".15" d="M31.5 16c0 8.56-6.94 15.5-15.5 15.5S.5 24.56.5 16C.5 7.44 7.44.5 16 .5S31.5 7.44 31.5 16z"/><path fill="#fff" d="M19.574 16l-5.345 5.167V10.834l5.345 5.167z"/><path fill="#fff" d="M16 2.282c7.576 0 13.718 6.142 13.718 13.718S23.576 29.718 16 29.718 2.282 23.576 2.282 16C2.29 8.427 8.427 2.29 16 2.282zM16 .5C7.44.5.5 7.44.5 16S7.44 31.5 16 31.5c8.56 0 15.5-6.94 15.5-15.5S24.56.5 16 .5z"/></symbol><symbol viewBox="0 0 40 40" id="youtube" xmlns="http://www.w3.org/2000/svg"><path d="M31.49 14.589a3.007 3.007 0 00-2.088-2.088C27.532 12 20.006 12 20.006 12s-7.507-.01-9.396.501a3.007 3.007 0 00-2.088 2.088A31.247 31.247 0 008 20.394c-.006 1.94.17 3.876.522 5.783a3.007 3.007 0 002.088 2.088c1.868.502 9.396.502 9.396.502s7.506 0 9.396-.502a3.007 3.007 0 002.088-2.088c.346-1.908.513-3.844.5-5.783a31.247 31.247 0 00-.5-5.805zm-13.886 9.396v-7.193l6.264 3.602-6.264 3.591z"/></symbol></svg>